<svg xmlns="http://www.w3.org/2000/svg" xmlns:xlink="http://www.w3.org/1999/xlink" width="500" zoomAndPan="magnify" viewBox="0 0 375 374.999991" height="500" preserveAspectRatio="xMidYMid meet" version="1.0"><defs><g/><clipPath id="a95f5b6f3d"><path d="M 187.5 0 C 83.945312 0 0 83.945312 0 187.5 C 0 291.054688 83.945312 375 187.5 375 C 291.054688 375 375 291.054688 375 187.5 C 375 83.945312 291.054688 0 187.5 0 " clip-rule="nonzero"/></clipPath></defs><g clip-path="url(#a95f5b6f3d)"><rect x="-37.5" width="450" fill="#ffffff" y="-37.499999" height="449.999989" fill-opacity="1"/></g><g fill="#130f40" fill-opacity="0.4"><g transform="translate(107.37555, 324.917484)"><g><path d="M 15.328125 0 C 13.585938 0 12.21875 -0.492188 11.21875 -1.484375 C 10.21875 -2.484375 9.71875 -3.859375 9.71875 -5.609375 L 9.71875 -256.109375 C 9.71875 -257.859375 10.21875 -259.226562 11.21875 -260.21875 C 12.21875 -261.21875 13.585938 -261.71875 15.328125 -261.71875 L 74.40625 -261.71875 C 76.144531 -261.71875 77.515625 -261.21875 78.515625 -260.21875 C 79.515625 -259.226562 80.015625 -257.859375 80.015625 -256.109375 L 80.015625 -182.078125 C 80.015625 -181.085938 80.320312 -180.53125 80.9375 -180.40625 C 81.5625 -180.28125 82.125 -180.710938 82.625 -181.703125 L 114.03125 -257.234375 C 115.28125 -260.222656 117.523438 -261.71875 120.765625 -261.71875 L 182.453125 -261.71875 C 184.453125 -261.71875 185.945312 -261.09375 186.9375 -259.84375 C 187.9375 -258.601562 187.941406 -256.988281 186.953125 -255 L 134.234375 -144.703125 C 133.984375 -143.703125 133.984375 -142.703125 134.234375 -141.703125 L 188.4375 -6.359375 C 188.6875 -5.609375 188.8125 -4.734375 188.8125 -3.734375 C 188.8125 -1.242188 187.191406 0 183.953125 0 L 121.890625 0 C 118.648438 0 116.40625 -1.492188 115.15625 -4.484375 L 86.375 -81.140625 C 86.125 -82.378906 85.6875 -83 85.0625 -83 C 84.4375 -83 83.875 -82.378906 83.375 -81.140625 L 80.390625 -73.65625 C 80.140625 -73.15625 80.015625 -72.160156 80.015625 -70.671875 L 80.015625 -5.609375 C 80.015625 -3.859375 79.515625 -2.484375 78.515625 -1.484375 C 77.515625 -0.492188 76.144531 0 74.40625 0 Z M 15.328125 0 "/></g></g></g><g fill="#272350" fill-opacity="1"><g transform="translate(90.851491, 308.393426)"><g><path d="M 15.328125 0 C 13.585938 0 12.21875 -0.492188 11.21875 -1.484375 C 10.21875 -2.484375 9.71875 -3.859375 9.71875 -5.609375 L 9.71875 -256.109375 C 9.71875 -257.859375 10.21875 -259.226562 11.21875 -260.21875 C 12.21875 -261.21875 13.585938 -261.71875 15.328125 -261.71875 L 74.40625 -261.71875 C 76.144531 -261.71875 77.515625 -261.21875 78.515625 -260.21875 C 79.515625 -259.226562 80.015625 -257.859375 80.015625 -256.109375 L 80.015625 -182.078125 C 80.015625 -181.085938 80.320312 -180.53125 80.9375 -180.40625 C 81.5625 -180.28125 82.125 -180.710938 82.625 -181.703125 L 114.03125 -257.234375 C 115.28125 -260.222656 117.523438 -261.71875 120.765625 -261.71875 L 182.453125 -261.71875 C 184.453125 -261.71875 185.945312 -261.09375 186.9375 -259.84375 C 187.9375 -258.601562 187.941406 -256.988281 186.953125 -255 L 134.234375 -144.703125 C 133.984375 -143.703125 133.984375 -142.703125 134.234375 -141.703125 L 188.4375 -6.359375 C 188.6875 -5.609375 188.8125 -4.734375 188.8125 -3.734375 C 188.8125 -1.242188 187.191406 0 183.953125 0 L 121.890625 0 C 118.648438 0 116.40625 -1.492188 115.15625 -4.484375 L 86.375 -81.140625 C 86.125 -82.378906 85.6875 -83 85.0625 -83 C 84.4375 -83 83.875 -82.378906 83.375 -81.140625 L 80.390625 -73.65625 C 80.140625 -73.15625 80.015625 -72.160156 80.015625 -70.671875 L 80.015625 -5.609375 C 80.015625 -3.859375 79.515625 -2.484375 78.515625 -1.484375 C 77.515625 -0.492188 76.144531 0 74.40625 0 Z M 15.328125 0 "/></g></g></g></svg>