<svg xmlns="http://www.w3.org/2000/svg" xmlns:xlink="http://www.w3.org/1999/xlink" width="500" zoomAndPan="magnify" viewBox="0 0 375 374.999991" height="500" preserveAspectRatio="xMidYMid meet" version="1.0"><defs><clipPath id="998268af1d"><path d="M 2.957031 2.203125 L 372.558594 2.203125 L 372.558594 371.800781 L 2.957031 371.800781 Z M 2.957031 2.203125 " clip-rule="nonzero"/></clipPath><clipPath id="6199a3efd3"><path d="M 132.214844 136 L 357 136 L 357 361 L 132.214844 361 Z M 132.214844 136 " clip-rule="nonzero"/></clipPath><clipPath id="97a2d9e899"><path d="M 132.832031 248.925781 L 244.839844 136.917969 L 356.847656 248.925781 L 244.839844 360.933594 Z M 132.832031 248.925781 " clip-rule="nonzero"/></clipPath><clipPath id="7e20f24fbc"><path d="M 195.574219 162.136719 L 209.65625 162.136719 L 209.65625 176 L 195.574219 176 Z M 195.574219 162.136719 " clip-rule="nonzero"/></clipPath><clipPath id="7dcaff8e24"><path d="M 207.304688 159.273438 L 210.878906 171.988281 L 199.445312 175.199219 L 195.871094 162.492188 Z M 207.304688 159.273438 " clip-rule="nonzero"/></clipPath><clipPath id="17ce6f751f"><path d="M 142.996094 205.144531 L 175.996094 205.144531 L 175.996094 273.785156 L 142.996094 273.785156 Z M 142.996094 205.144531 " clip-rule="nonzero"/></clipPath></defs><g clip-path="url(#998268af1d)"><path fill="#ffffff" d="M 27.261719 2.203125 L 348.261719 2.203125 C 354.703125 2.203125 360.882812 4.753906 365.441406 9.304688 C 370 13.855469 372.558594 20.023438 372.558594 26.457031 L 372.558594 347.546875 C 372.558594 353.976562 370 360.148438 365.441406 364.699219 C 360.882812 369.246094 354.703125 371.800781 348.261719 371.800781 L 27.261719 371.800781 C 20.820312 371.800781 14.636719 369.246094 10.082031 364.699219 C 5.523438 360.148438 2.957031 353.976562 2.957031 347.546875 L 2.957031 26.457031 C 2.957031 20.023438 5.523438 13.855469 10.082031 9.304688 C 14.636719 4.753906 20.820312 2.203125 27.261719 2.203125 " fill-opacity="1" fill-rule="nonzero"/></g><path fill="#30336b" d="M 145.847656 45.707031 C 157.289062 44.140625 167.546875 45.5625 176.628906 49.976562 C 185.714844 54.390625 192.988281 60.886719 198.449219 69.464844 C 203.90625 78.03125 207.277344 88.160156 208.570312 99.847656 C 209.875 111.542969 208.445312 123.882812 204.300781 136.875 C 201.867188 135.996094 198.351562 135.210938 193.761719 134.519531 C 189.1875 133.832031 184.554688 133.144531 179.878906 132.457031 C 174.339844 131.769531 168.535156 131.066406 162.480469 130.367188 C 164.554688 126.042969 165.855469 122.144531 166.371094 118.679688 C 166.726562 115.734375 166.203125 112.839844 164.808594 109.988281 C 163.425781 107.128906 160.3125 105.273438 155.460938 104.40625 C 149.917969 103.71875 145.367188 104.324219 141.820312 106.226562 C 138.265625 108.117188 135.84375 110.628906 134.539062 113.753906 C 133.246094 116.863281 132.984375 120.28125 133.769531 124.007812 C 134.546875 127.730469 136.496094 130.886719 139.621094 133.488281 C 142.726562 136.257812 146.789062 138.988281 151.808594 141.667969 C 156.835938 144.355469 163.511719 147.085938 171.828125 149.855469 C 180.148438 152.625 186.808594 157.128906 191.828125 163.367188 C 196.839844 169.601562 199.863281 176.351562 200.910156 183.625 C 201.953125 190.886719 200.695312 197.941406 197.148438 204.789062 C 193.59375 211.628906 187.324219 217.039062 178.320312 221.027344 C 172.433594 223.796875 166.246094 225.40625 159.75 225.84375 C 153.253906 226.273438 147.015625 225.75 141.050781 224.277344 C 135.074219 222.800781 129.445312 220.421875 124.15625 217.128906 C 118.878906 213.828125 114.457031 209.804688 110.910156 205.054688 C 107.355469 200.292969 104.894531 194.878906 103.519531 188.816406 C 102.136719 182.761719 102.226562 176.179688 103.78125 169.058594 C 104.644531 169.058594 106.976562 169.582031 110.777344 170.625 C 114.585938 171.671875 118.65625 172.878906 122.988281 174.277344 C 128.015625 175.828125 133.5625 177.472656 139.621094 179.207031 C 139.621094 184.910156 140.960938 189.1875 143.648438 192.046875 C 146.328125 194.90625 149.355469 196.648438 152.730469 197.265625 C 156.105469 197.871094 159.386719 197.390625 162.589844 195.835938 C 165.800781 194.269531 167.921875 191.839844 168.96875 188.554688 C 169.835938 185.777344 168.578125 182.964844 165.207031 180.105469 C 161.832031 177.246094 157.542969 174.558594 152.339844 172.054688 C 147.148438 169.546875 141.820312 167.214844 136.367188 165.058594 C 130.921875 162.890625 126.550781 161.027344 123.25 159.46875 C 113.378906 154.621094 106.0625 147.25 101.296875 137.378906 C 96.546875 127.511719 95.640625 114.785156 98.589844 99.207031 C 100.144531 91.246094 101.957031 84.28125 104.027344 78.308594 C 106.105469 72.328125 108.921875 67.21875 112.46875 62.976562 C 116.015625 58.726562 120.4375 55.222656 125.71875 52.457031 C 130.996094 49.6875 137.707031 47.4375 145.847656 45.707031 Z M 145.847656 45.707031 " fill-opacity="1" fill-rule="nonzero"/><path stroke-linecap="butt" transform="matrix(0.746331, -0.746331, 0.746705, 0.746705, 95.253353, 280.411798)" fill="none" stroke-linejoin="miter" d="M -0.00638041 2.000249 L 250.128578 2.000249 " stroke="#130f40" stroke-width="4" stroke-opacity="1" stroke-miterlimit="4"/><g clip-path="url(#6199a3efd3)"><g clip-path="url(#97a2d9e899)"><path fill="#ffffff" d="M 132.832031 248.925781 L 244.839844 136.917969 L 356.847656 248.925781 L 244.839844 360.933594 L 132.832031 248.925781 " fill-opacity="1" fill-rule="nonzero"/></g></g><path fill="#30336b" d="M 146.433594 44.855469 C 157.890625 43.300781 168.175781 44.738281 177.289062 49.175781 C 186.398438 53.59375 193.6875 60.105469 199.152344 68.699219 C 204.632812 77.300781 208.019531 87.453125 209.328125 99.167969 C 210.628906 110.882812 209.195312 123.253906 205.039062 136.265625 C 202.597656 135.40625 199.078125 134.628906 194.476562 133.929688 C 189.871094 133.234375 185.222656 132.539062 180.535156 131.839844 C 174.980469 131.164062 169.164062 130.476562 163.101562 129.777344 C 165.191406 125.429688 166.488281 121.527344 167.003906 118.0625 C 167.347656 115.113281 166.828125 112.203125 165.4375 109.34375 C 164.042969 106.46875 160.914062 104.601562 156.058594 103.734375 C 150.503906 103.039062 145.945312 103.644531 142.394531 105.550781 C 138.832031 107.460938 136.40625 109.976562 135.105469 113.113281 C 133.800781 116.234375 133.539062 119.65625 134.308594 123.394531 C 135.089844 127.121094 137.058594 130.285156 140.191406 132.882812 C 143.308594 135.675781 147.378906 138.410156 152.402344 141.105469 C 157.441406 143.789062 164.132812 146.515625 172.476562 149.300781 C 180.796875 152.070312 187.480469 156.582031 192.523438 162.832031 C 197.566406 169.085938 200.597656 175.859375 201.628906 183.152344 C 202.671875 190.457031 201.414062 197.53125 197.859375 204.382812 C 194.300781 211.246094 188.015625 216.667969 178.996094 220.664062 C 173.089844 223.433594 166.875 225.035156 160.351562 225.476562 C 153.839844 225.917969 147.589844 225.40625 141.59375 223.9375 C 135.613281 222.453125 129.976562 220.058594 124.683594 216.757812 C 119.382812 213.457031 114.953125 209.429688 111.398438 204.660156 C 107.839844 199.875 105.363281 194.449219 103.976562 188.378906 C 102.578125 182.292969 102.667969 175.695312 104.25 168.578125 C 105.109375 168.578125 107.445312 169.101562 111.261719 170.144531 C 115.09375 171.175781 119.167969 172.386719 123.5 173.777344 C 128.539062 175.335938 134.101562 176.988281 140.191406 178.726562 C 140.191406 184.46875 141.527344 188.765625 144.207031 191.625 C 146.902344 194.484375 149.933594 196.214844 153.308594 196.820312 C 156.699219 197.425781 160 196.953125 163.210938 195.390625 C 166.433594 193.835938 168.574219 191.402344 169.617188 188.105469 C 170.476562 185.320312 169.210938 182.492188 165.824219 179.632812 C 162.445312 176.773438 158.148438 174.09375 152.925781 171.578125 C 147.714844 169.046875 142.378906 166.703125 136.921875 164.535156 C 131.453125 162.378906 127.074219 160.507812 123.773438 158.925781 C 113.875 154.074219 106.53125 146.703125 101.746094 136.816406 C 96.984375 126.917969 96.074219 114.148438 99.023438 98.507812 C 100.597656 90.535156 102.421875 83.550781 104.496094 77.554688 C 106.585938 71.558594 109.40625 66.4375 112.96875 62.179688 C 116.523438 57.933594 120.949219 54.417969 126.25 51.648438 C 131.542969 48.863281 138.273438 46.601562 146.433594 44.855469 Z M 146.433594 44.855469 " fill-opacity="1" fill-rule="nonzero"/><path fill="#30336b" d="M 298.269531 150.035156 L 241.511719 239.878906 L 294.890625 286.488281 L 255.042969 316.4375 L 218.328125 273.207031 L 218.328125 313.054688 L 178.480469 316.4375 L 171.714844 133.09375 L 225.09375 133.09375 L 221.710938 196.648438 L 248.277344 139.859375 Z M 298.269531 150.035156 " fill-opacity="1" fill-rule="nonzero"/><path stroke-linecap="butt" transform="matrix(0.934551, -0.934551, 0.933381, 0.933381, 95.343997, 279.289434)" fill="none" stroke-linejoin="miter" d="M 0.00215653 1.998032 L 198.760748 2.002217 " stroke="#3a4cae" stroke-width="4" stroke-opacity="1" stroke-miterlimit="4"/><path stroke-linecap="butt" transform="matrix(0.929125, -0.929125, 0.933381, 0.933381, 197.129771, 169.688588)" fill="none" stroke-linejoin="miter" d="M 0.00222242 2.001502 L 58.272785 2.001502 " stroke="#ffffff" stroke-width="4" stroke-opacity="1" stroke-miterlimit="4"/><path stroke-linecap="butt" transform="matrix(0.929125, -0.929125, 0.933381, 0.933381, 195.249059, 165.728968)" fill="none" stroke-linejoin="miter" d="M -0.000301419 1.997579 L 58.274465 2.001764 " stroke="#ffffff" stroke-width="4" stroke-opacity="1" stroke-miterlimit="4"/><path stroke-linecap="butt" transform="matrix(0.929125, -0.929125, 0.933381, 0.933381, 192.610084, 161.12848)" fill="none" stroke-linejoin="miter" d="M -0.000610942 2.000305 L 58.272054 2.002397 " stroke="#ffffff" stroke-width="4" stroke-opacity="1" stroke-miterlimit="4"/><path stroke-linecap="butt" transform="matrix(0.929125, -0.929125, 0.933381, 0.933381, 189.969117, 157.167366)" fill="none" stroke-linejoin="miter" d="M 0.0015806 1.998489 L 58.272143 2.002674 " stroke="#ffffff" stroke-width="4" stroke-opacity="1" stroke-miterlimit="4"/><path stroke-linecap="butt" transform="matrix(0.929125, -0.929125, 0.933381, 0.933381, 187.854645, 153.319224)" fill="none" stroke-linejoin="miter" d="M 0.00195941 1.999388 L 58.272522 1.999388 " stroke="#ffffff" stroke-width="4" stroke-opacity="1" stroke-miterlimit="4"/><path stroke-linecap="butt" transform="matrix(0.338149, -1.262008, 1.275014, 0.341634, 200.340915, 154.327475)" fill="none" stroke-linejoin="miter" d="M -0.000784849 1.999958 L 47.495588 1.998195 " stroke="#ffffff" stroke-width="4" stroke-opacity="1" stroke-miterlimit="4"/><path stroke-linecap="butt" transform="matrix(1.298739, 0.217923, -0.218434, 1.301802, 158.45998, 127.99612)" fill="none" stroke-linejoin="miter" d="M -0.0000162567 1.998415 L 53.138213 2.002936 " stroke="#ffffff" stroke-width="4" stroke-opacity="1" stroke-miterlimit="4"/><path stroke-linecap="butt" transform="matrix(1.306818, 0.223538, -0.22257, 1.301098, 158.021699, 132.260603)" fill="none" stroke-linejoin="miter" d="M 0.000728449 1.997244 L 49.793963 1.998898 " stroke="#ffffff" stroke-width="4" stroke-opacity="1" stroke-miterlimit="4"/><path stroke-linecap="butt" transform="matrix(1.303579, 0.223133, -0.22271, 1.30108, 158.477557, 136.403648)" fill="none" stroke-linejoin="miter" d="M -0.000405001 2.00161 L 48.914819 1.998201 " stroke="#ffffff" stroke-width="4" stroke-opacity="1" stroke-miterlimit="4"/><path stroke-linecap="butt" transform="matrix(1.315776, 0.22704, -0.224435, 1.300781, 167.201874, 141.762838)" fill="none" stroke-linejoin="miter" d="M 0.00052415 1.999049 L 36.594266 2.002321 " stroke="#ffffff" stroke-width="4" stroke-opacity="1" stroke-miterlimit="4"/><path stroke-linecap="butt" transform="matrix(1.163958, 0.434368, -0.461507, 1.236699, 173.560788, 144.119477)" fill="none" stroke-linejoin="miter" d="M 0.00129703 1.997093 L 7.44338 2.001685 " stroke="#ffffff" stroke-width="4" stroke-opacity="1" stroke-miterlimit="4"/><path stroke-linecap="butt" transform="matrix(0.868067, 0.989155, -0.99213, 0.870672, 232.538353, 66.279956)" fill="none" stroke-linejoin="miter" d="M 0.00151841 2.00073 L 26.092676 2.001176 " stroke="#ffffff" stroke-width="4" stroke-opacity="1" stroke-miterlimit="4"/><path stroke-linecap="butt" transform="matrix(1.163958, 0.434368, -0.461507, 1.236699, 181.345231, 147.320894)" fill="none" stroke-linejoin="miter" d="M -0.000630076 1.999151 L 7.4422 1.997163 " stroke="#ffffff" stroke-width="4" stroke-opacity="1" stroke-miterlimit="4"/><path stroke-linecap="butt" transform="matrix(1.163958, 0.434368, -0.461507, 1.236699, 186.871617, 147.320894)" fill="none" stroke-linejoin="miter" d="M 0.0000921517 1.998897 L 7.442922 1.996909 " stroke="#ffffff" stroke-width="4" stroke-opacity="1" stroke-miterlimit="4"/><path stroke-linecap="butt" transform="matrix(0.931498, 0.842829, -0.885632, 0.978806, 188.772429, 151.504459)" fill="none" stroke-linejoin="miter" d="M -0.00129339 1.999955 L 8.406404 1.999636 " stroke="#ffffff" stroke-width="4" stroke-opacity="1" stroke-miterlimit="4"/><path stroke-linecap="butt" transform="matrix(0.778518, 0.988434, -1.036974, 0.816746, 195.152437, 157.060756)" fill="none" stroke-linejoin="miter" d="M -0.0000316476 1.99656 L 7.348714 1.998859 " stroke="#ffffff" stroke-width="4" stroke-opacity="1" stroke-miterlimit="4"/><path stroke-linecap="butt" transform="matrix(0.610104, 1.179904, -1.172512, 0.606285, 199.668611, 162.650512)" fill="none" stroke-linejoin="miter" d="M -0.00361066 2.000914 L 4.978642 2.001451 " stroke="#ffffff" stroke-width="4" stroke-opacity="1" stroke-miterlimit="4"/><path stroke-linecap="butt" transform="matrix(1.073072, 0.823557, -0.803669, 1.047147, 181.470213, 146.456753)" fill="none" stroke-linejoin="miter" d="M 0.00240915 1.997851 L 10.745099 1.998271 " stroke="#ffffff" stroke-width="4" stroke-opacity="1" stroke-miterlimit="4"/><g clip-path="url(#7e20f24fbc)"><g clip-path="url(#7dcaff8e24)"><path fill="#ffffff" d="M 209.089844 165.628906 L 199.445312 175.199219 L 195.871094 162.492188 L 209.089844 165.628906 " fill-opacity="1" fill-rule="nonzero"/></g></g><g clip-path="url(#17ce6f751f)"><path fill="#ffffff" d="M 142.996094 239.464844 L 175.996094 205.160156 L 175.996094 273.769531 L 142.996094 239.464844 " fill-opacity="1" fill-rule="nonzero"/></g></svg>